<svg width="16" height="16" viewBox="0 0 16 16" fill="none" xmlns="http://www.w3.org/2000/svg">
<g clip-path="url(#clip0_241_264)">
<path d="M7.97754 0.166016C5.94223 0.166016 5.68629 0.175391 4.8866 0.211016C4.08691 0.248516 3.54223 0.374141 3.06504 0.559766C2.5645 0.748034 2.11112 1.04335 1.7366 1.42508C1.35511 1.79979 1.05983 2.25312 0.871289 2.75352C0.685664 3.22977 0.559102 3.77539 0.522539 4.57227C0.486914 5.37383 0.477539 5.62883 0.477539 7.66695C0.477539 9.7032 0.486914 9.9582 0.522539 10.7579C0.560039 11.5566 0.685664 12.1013 0.871289 12.5785C1.06348 13.0716 1.31941 13.4898 1.7366 13.907C2.15285 14.3241 2.57098 14.581 3.0641 14.7723C3.54223 14.9579 4.08598 15.0845 4.88473 15.121C5.68535 15.1566 5.94035 15.166 7.97754 15.166C10.0147 15.166 10.2688 15.1566 11.0694 15.121C11.8672 15.0835 12.4138 14.9579 12.891 14.7723C13.3912 14.5839 13.8442 14.2886 14.2185 13.907C14.6357 13.4898 14.8916 13.0716 15.0838 12.5785C15.2685 12.1013 15.395 11.5566 15.4325 10.7579C15.4682 9.9582 15.4775 9.7032 15.4775 7.66602C15.4775 5.62883 15.4682 5.37383 15.4325 4.5732C15.395 3.77539 15.2685 3.22977 15.0838 2.75352C14.8953 2.2531 14.6 1.79977 14.2185 1.42508C13.8441 1.04321 13.3907 0.747871 12.89 0.559766C12.4119 0.374141 11.8663 0.247578 11.0685 0.211016C10.2679 0.175391 10.0138 0.166016 7.97566 0.166016H7.97848H7.97754ZM7.30535 1.51789H7.97848C9.98098 1.51789 10.2182 1.52445 11.0085 1.56102C11.7397 1.59383 12.1372 1.71664 12.4016 1.81883C12.7513 1.95477 13.0016 2.11789 13.2641 2.38039C13.5266 2.64289 13.6888 2.89227 13.8247 3.24289C13.9279 3.50633 14.0497 3.90383 14.0825 4.63508C14.1191 5.42539 14.1266 5.66258 14.1266 7.66414C14.1266 9.6657 14.1191 9.90383 14.0825 10.6941C14.0497 11.4254 13.9269 11.822 13.8247 12.0863C13.7045 12.412 13.5126 12.7064 13.2632 12.9479C13.0007 13.2104 12.7513 13.3726 12.4007 13.5085C12.1382 13.6116 11.7407 13.7335 11.0085 13.7673C10.2182 13.8029 9.98098 13.8113 7.97848 13.8113C5.97598 13.8113 5.73785 13.8029 4.94754 13.7673C4.21629 13.7335 3.81973 13.6116 3.55535 13.5085C3.22957 13.3884 2.93484 13.1969 2.69285 12.9479C2.44324 12.706 2.25103 12.4113 2.13035 12.0854C2.02816 11.822 1.90535 11.4245 1.87254 10.6932C1.83691 9.90289 1.82941 9.6657 1.82941 7.66227C1.82941 5.65977 1.83691 5.42352 1.87254 4.6332C1.90629 3.90195 2.02816 3.50445 2.13129 3.24008C2.26723 2.89039 2.43035 2.64008 2.69285 2.37758C2.95535 2.11508 3.20473 1.95289 3.55535 1.81695C3.81973 1.71383 4.21629 1.59195 4.94754 1.5582C5.63941 1.52633 5.90754 1.51695 7.30535 1.51602V1.51789V1.51789ZM11.9816 2.76289C11.8634 2.76289 11.7464 2.78617 11.6372 2.8314C11.528 2.87663 11.4288 2.94292 11.3452 3.02649C11.2616 3.11007 11.1953 3.20928 11.1501 3.31848C11.1049 3.42767 11.0816 3.5447 11.0816 3.66289C11.0816 3.78108 11.1049 3.89811 11.1501 4.00731C11.1953 4.1165 11.2616 4.21571 11.3452 4.29929C11.4288 4.38286 11.528 4.44915 11.6372 4.49438C11.7464 4.53961 11.8634 4.56289 11.9816 4.56289C12.2203 4.56289 12.4492 4.46807 12.618 4.29929C12.7868 4.1305 12.8816 3.90159 12.8816 3.66289C12.8816 3.4242 12.7868 3.19528 12.618 3.02649C12.4492 2.85771 12.2203 2.76289 11.9816 2.76289V2.76289ZM7.97848 3.81477C7.46761 3.8068 6.96025 3.90053 6.48596 4.09052C6.01166 4.28051 5.5799 4.56296 5.21581 4.92141C4.85171 5.27987 4.56257 5.70717 4.3652 6.17845C4.16784 6.64972 4.0662 7.15555 4.0662 7.66648C4.0662 8.17742 4.16784 8.68325 4.3652 9.15452C4.56257 9.6258 4.85171 10.0531 5.21581 10.4116C5.5799 10.77 6.01166 11.0525 6.48596 11.2424C6.96025 11.4324 7.46761 11.5262 7.97848 11.5182C8.98961 11.5024 9.95399 11.0897 10.6635 10.3691C11.3729 9.64844 11.7706 8.67774 11.7706 7.66648C11.7706 6.65523 11.3729 5.68453 10.6635 4.96391C9.95399 4.24328 8.98961 3.83054 7.97848 3.81477V3.81477ZM7.97848 5.1657C8.6416 5.1657 9.27757 5.42913 9.74646 5.89803C10.2154 6.36693 10.4788 7.00289 10.4788 7.66602C10.4788 8.32914 10.2154 8.9651 9.74646 9.434C9.27757 9.9029 8.6416 10.1663 7.97848 10.1663C7.31535 10.1663 6.67939 9.9029 6.21049 9.434C5.74159 8.9651 5.47816 8.32914 5.47816 7.66602C5.47816 7.00289 5.74159 6.36693 6.21049 5.89803C6.67939 5.42913 7.31535 5.1657 7.97848 5.1657V5.1657Z" fill="#FDFEFD"/>
</g>
<defs>
<clipPath id="clip0_241_264">
<rect width="15" height="15" fill="white" transform="translate(0.477539 0.166016)"/>
</clipPath>
</defs>
</svg>
