<svg width="99" height="52" viewBox="0 0 99 52" fill="none" xmlns="http://www.w3.org/2000/svg">
<rect x="2.12132" y="24.7487" width="32" height="32" transform="rotate(-45 2.12132 24.7487)" stroke="#DA131D" stroke-width="3"/>
<path d="M41.3342 16.9382C40.8616 16.9382 40.4358 17.0202 40.0569 17.1843C39.6819 17.3445 39.3616 17.5788 39.0959 17.8874C38.8342 18.1921 38.6331 18.5612 38.4924 18.9948C38.3518 19.4284 38.2815 19.9167 38.2815 20.4597C38.2815 21.1784 38.3928 21.8034 38.6155 22.3347C38.842 22.862 39.178 23.2702 39.6233 23.5593C40.0725 23.8484 40.6331 23.9929 41.3049 23.9929C41.6877 23.9929 42.0471 23.9616 42.3831 23.8991C42.7229 23.8327 43.053 23.7507 43.3733 23.653V24.5202C43.0608 24.6374 42.7327 24.7234 42.3889 24.778C42.0452 24.8366 41.637 24.8659 41.1643 24.8659C40.2932 24.8659 39.5647 24.6862 38.9788 24.3269C38.3967 23.9636 37.9592 23.4519 37.6663 22.7917C37.3772 22.1316 37.2327 21.3523 37.2327 20.4538C37.2327 19.8054 37.3225 19.2136 37.5022 18.6784C37.6858 18.1394 37.9514 17.6745 38.2991 17.2839C38.6506 16.8933 39.0803 16.5925 39.5881 16.3816C40.0999 16.1667 40.6858 16.0593 41.3459 16.0593C41.7795 16.0593 42.1975 16.1023 42.5999 16.1882C43.0022 16.2741 43.3655 16.3972 43.6897 16.5573L43.2913 17.4011C43.0178 17.2761 42.717 17.1687 42.3889 17.0788C42.0647 16.9851 41.7131 16.9382 41.3342 16.9382ZM48.2307 24.7487V16.1823H49.2268V23.8581H53.0295V24.7487H48.2307ZM63.9807 16.1823V21.7253C63.9807 22.3308 63.8577 22.8698 63.6116 23.3425C63.3694 23.8152 63.0022 24.1882 62.51 24.4616C62.0178 24.7312 61.4006 24.8659 60.6584 24.8659C59.5999 24.8659 58.7932 24.5788 58.2385 24.0046C57.6877 23.4304 57.4124 22.6628 57.4124 21.7019V16.1823H58.4143V21.7312C58.4143 22.4577 58.6057 23.0183 58.9885 23.4128C59.3752 23.8073 59.9514 24.0046 60.717 24.0046C61.2405 24.0046 61.6682 23.9109 62.0002 23.7234C62.3362 23.532 62.5842 23.2663 62.7444 22.9265C62.9084 22.5827 62.9905 22.1862 62.9905 21.737V16.1823H63.9807ZM69.2542 16.1823H71.6799C72.7502 16.1823 73.5549 16.3425 74.094 16.6628C74.6331 16.9831 74.9026 17.528 74.9026 18.2976C74.9026 18.6296 74.8381 18.9284 74.7092 19.1941C74.5842 19.4558 74.4006 19.6726 74.1584 19.8445C73.9163 20.0163 73.6174 20.1355 73.262 20.2019V20.2605C73.637 20.3191 73.969 20.4265 74.2581 20.5827C74.5471 20.739 74.7737 20.9577 74.9377 21.239C75.1018 21.5202 75.1838 21.8777 75.1838 22.3112C75.1838 22.8386 75.0608 23.2839 74.8147 23.6472C74.5725 24.0105 74.2288 24.2859 73.7834 24.4734C73.3381 24.657 72.8108 24.7487 72.2014 24.7487H69.2542V16.1823ZM70.2502 19.8562H71.8909C72.637 19.8562 73.1526 19.7331 73.4377 19.487C73.7268 19.2409 73.8713 18.8816 73.8713 18.4089C73.8713 17.9206 73.6995 17.5691 73.3557 17.3542C73.0159 17.1394 72.4729 17.032 71.7268 17.032H70.2502V19.8562ZM70.2502 20.6941V23.8991H72.0315C72.7932 23.8991 73.3323 23.7507 73.6487 23.4538C73.9651 23.153 74.1233 22.7487 74.1233 22.2409C74.1233 21.9167 74.051 21.6394 73.9065 21.4089C73.7659 21.1784 73.5354 21.0027 73.2151 20.8816C72.8987 20.7566 72.4749 20.6941 71.9436 20.6941H70.2502Z" fill="#FDFDFD"/>
<path d="M25.9292 40.8521H20.5679V15.1529H35.2983V19.6178H25.9292V26.2447H34.6479V30.692H25.9292V40.8521ZM38.7085 40.8521V28.0025H41.4331V40.8521H38.7085ZM49.6245 40.8521H46.8999V30.2701H43.4106V28.0025H53.1138V30.2701H49.6245V40.8521ZM66.4907 40.8521H63.0278L57.438 31.1314H57.3589C57.3823 31.5357 57.4028 31.943 57.4204 32.3531C57.438 32.7633 57.4556 33.1734 57.4731 33.5836C57.4907 33.9879 57.5083 34.3951 57.5259 34.8053V40.8521H55.0913V28.0025H58.5278L64.1089 37.6266H64.1704C64.1587 37.2281 64.144 36.8326 64.1265 36.44C64.1089 36.0475 64.0913 35.6549 64.0737 35.2623C64.062 34.8697 64.0503 34.4771 64.0386 34.0846V28.0025H66.4907V40.8521ZM77.1343 40.8521H69.7339V28.0025H77.1343V30.235H72.4585V33.0562H76.8091V35.2887H72.4585V38.6021H77.1343V40.8521ZM87.4087 37.2838C87.4087 38.0455 87.2241 38.7076 86.855 39.2701C86.4858 39.8326 85.9468 40.2662 85.2378 40.5709C84.5347 40.8756 83.6792 41.0279 82.6714 41.0279C82.2261 41.0279 81.7896 40.9986 81.3618 40.94C80.9399 40.8814 80.5327 40.7965 80.1401 40.6852C79.7534 40.568 79.3843 40.4244 79.0327 40.2545V37.7232C79.6421 37.9928 80.2749 38.2359 80.9312 38.4527C81.5874 38.6695 82.2378 38.7779 82.8823 38.7779C83.3276 38.7779 83.6851 38.7193 83.9546 38.6021C84.23 38.485 84.4292 38.3238 84.5522 38.1187C84.6753 37.9137 84.7368 37.6793 84.7368 37.4156C84.7368 37.0934 84.6284 36.818 84.4116 36.5894C84.1948 36.3609 83.896 36.1471 83.5151 35.9478C83.1401 35.7486 82.7153 35.5348 82.2407 35.3062C81.9419 35.1656 81.6167 34.9957 81.2651 34.7965C80.9136 34.5914 80.5796 34.3424 80.2632 34.0494C79.9468 33.7564 79.686 33.4019 79.481 32.9859C79.2817 32.5641 79.1821 32.0602 79.1821 31.4742C79.1821 30.7066 79.3579 30.0504 79.7095 29.5055C80.061 28.9605 80.562 28.5445 81.2124 28.2574C81.8687 27.9644 82.6421 27.818 83.5327 27.818C84.2007 27.818 84.8364 27.8971 85.4399 28.0553C86.0493 28.2076 86.6851 28.4303 87.3472 28.7232L86.4683 30.8414C85.8765 30.6012 85.3462 30.4166 84.8774 30.2877C84.4087 30.1529 83.9312 30.0855 83.4448 30.0855C83.105 30.0855 82.8149 30.1412 82.5747 30.2525C82.3345 30.358 82.1528 30.5103 82.0298 30.7096C81.9067 30.9029 81.8452 31.1285 81.8452 31.3863C81.8452 31.691 81.9331 31.9488 82.1089 32.1598C82.2905 32.3648 82.5601 32.5641 82.9175 32.7574C83.2808 32.9508 83.7319 33.1764 84.271 33.4342C84.9272 33.7447 85.4868 34.0699 85.9497 34.4098C86.4185 34.7437 86.7788 35.1393 87.0308 35.5963C87.2827 36.0475 87.4087 36.61 87.4087 37.2838ZM97.3228 37.2838C97.3228 38.0455 97.1382 38.7076 96.769 39.2701C96.3999 39.8326 95.8608 40.2662 95.1519 40.5709C94.4487 40.8756 93.5933 41.0279 92.5854 41.0279C92.1401 41.0279 91.7036 40.9986 91.2759 40.94C90.854 40.8814 90.4468 40.7965 90.0542 40.6852C89.6675 40.568 89.2983 40.4244 88.9468 40.2545V37.7232C89.5562 37.9928 90.189 38.2359 90.8452 38.4527C91.5015 38.6695 92.1519 38.7779 92.7964 38.7779C93.2417 38.7779 93.5991 38.7193 93.8687 38.6021C94.144 38.485 94.3433 38.3238 94.4663 38.1187C94.5894 37.9137 94.6509 37.6793 94.6509 37.4156C94.6509 37.0934 94.5425 36.818 94.3257 36.5894C94.1089 36.3609 93.8101 36.1471 93.4292 35.9478C93.0542 35.7486 92.6294 35.5348 92.1548 35.3062C91.856 35.1656 91.5308 34.9957 91.1792 34.7965C90.8276 34.5914 90.4937 34.3424 90.1772 34.0494C89.8608 33.7564 89.6001 33.4019 89.395 32.9859C89.1958 32.5641 89.0962 32.0602 89.0962 31.4742C89.0962 30.7066 89.272 30.0504 89.6235 29.5055C89.9751 28.9605 90.4761 28.5445 91.1265 28.2574C91.7827 27.9644 92.5562 27.818 93.4468 27.818C94.1147 27.818 94.7505 27.8971 95.354 28.0553C95.9634 28.2076 96.5991 28.4303 97.2612 28.7232L96.3823 30.8414C95.7905 30.6012 95.2603 30.4166 94.7915 30.2877C94.3228 30.1529 93.8452 30.0855 93.3589 30.0855C93.019 30.0855 92.729 30.1412 92.4888 30.2525C92.2485 30.358 92.0669 30.5103 91.9438 30.7096C91.8208 30.9029 91.7593 31.1285 91.7593 31.3863C91.7593 31.691 91.8472 31.9488 92.0229 32.1598C92.2046 32.3648 92.4741 32.5641 92.8315 32.7574C93.1948 32.9508 93.646 33.1764 94.1851 33.4342C94.8413 33.7447 95.4009 34.0699 95.8638 34.4098C96.3325 34.7437 96.6929 35.1393 96.9448 35.5963C97.1968 36.0475 97.3228 36.61 97.3228 37.2838Z" fill="#FDFDFD"/>
</svg>
