<svg width="15" height="15" viewBox="0 0 15 15" fill="none" xmlns="http://www.w3.org/2000/svg">
<g clip-path="url(#clip0_241_270)">
<path d="M14.7693 3.04577C14.2822 3.26161 13.759 3.40744 13.2089 3.47336C13.7765 3.13374 14.2011 2.59921 14.4035 1.96952C13.8703 2.28627 13.2867 2.50922 12.678 2.62869C12.2688 2.1917 11.7267 1.90205 11.1359 1.80472C10.5451 1.70739 9.93876 1.80782 9.41093 2.09042C8.88309 2.37302 8.46332 2.82198 8.2168 3.3676C7.97027 3.91322 7.91077 4.52496 8.04754 5.10786C6.96702 5.0536 5.90999 4.77276 4.94504 4.28355C3.98008 3.79434 3.12878 3.1077 2.44637 2.26819C2.21304 2.67069 2.07887 3.13736 2.07887 3.63436C2.07861 4.08177 2.18879 4.52233 2.39963 4.91695C2.61048 5.31157 2.91547 5.64805 3.28754 5.89652C2.85603 5.88279 2.43405 5.7662 2.05671 5.55644V5.59144C2.05666 6.21896 2.27372 6.82716 2.67106 7.31285C3.0684 7.79855 3.62154 8.13182 4.23662 8.25611C3.83633 8.36444 3.41665 8.3804 3.00929 8.30277C3.18283 8.84271 3.52087 9.31487 3.97609 9.65315C4.4313 9.99142 4.98091 10.1789 5.54796 10.1893C4.58536 10.9449 3.39656 11.3548 2.17279 11.353C1.95601 11.3531 1.73942 11.3404 1.52412 11.3151C2.76632 12.1138 4.21232 12.5377 5.68912 12.536C10.6883 12.536 13.4212 8.39552 13.4212 4.80452C13.4212 4.68786 13.4183 4.57002 13.413 4.45336C13.9446 4.06892 14.4035 3.59288 14.7681 3.04752L14.7693 3.04577Z" fill="#FDFEFD"/>
</g>
<defs>
<clipPath id="clip0_241_270">
<rect width="14" height="14" fill="white" transform="translate(0.977539 0.166016)"/>
</clipPath>
</defs>
</svg>
