<svg width="16" height="16" viewBox="0 0 16 16" fill="none" xmlns="http://www.w3.org/2000/svg">
<g clip-path="url(#clip0_241_136)">
<path d="M14.5014 3.4979L5.86451 12.1341C5.80645 12.1924 5.73744 12.2387 5.66145 12.2703C5.58546 12.3018 5.50398 12.3181 5.4217 12.3181C5.33942 12.3181 5.25794 12.3018 5.18195 12.2703C5.10597 12.2387 5.03696 12.1924 4.97889 12.1341L1.63889 8.79102C1.58082 8.73272 1.51181 8.68647 1.43583 8.6549C1.35984 8.62334 1.27836 8.60709 1.19608 8.60709C1.1138 8.60709 1.03232 8.62334 0.956333 8.6549C0.880344 8.68647 0.811335 8.73272 0.753267 8.79102V8.79102C0.694969 8.84909 0.648711 8.9181 0.617147 8.99409C0.585584 9.07008 0.569336 9.15155 0.569336 9.23383C0.569336 9.31612 0.585584 9.39759 0.617147 9.47358C0.648711 9.54957 0.694969 9.61858 0.753267 9.67665L4.09451 13.0173C4.44698 13.3691 4.92464 13.5667 5.42264 13.5667C5.92064 13.5667 6.3983 13.3691 6.75076 13.0173L15.387 4.3829C15.4452 4.32484 15.4914 4.25587 15.5229 4.17994C15.5544 4.10401 15.5706 4.02261 15.5706 3.9404C15.5706 3.85819 15.5544 3.77679 15.5229 3.70085C15.4914 3.62492 15.4452 3.55595 15.387 3.4979C15.3289 3.4396 15.2599 3.39334 15.1839 3.36178C15.108 3.33021 15.0265 3.31396 14.9442 3.31396C14.8619 3.31396 14.7804 3.33021 14.7045 3.36178C14.6285 3.39334 14.5595 3.4396 14.5014 3.4979Z" fill="#FDFDFD"/>
</g>
<defs>
<clipPath id="clip0_241_136">
<rect width="15" height="15" fill="white" transform="translate(0.552002 0.728516)"/>
</clipPath>
</defs>
</svg>
