<svg width="50" height="50" viewBox="0 0 60 60" fill="none" xmlns="http://www.w3.org/2000/svg">
<path fill-rule="evenodd" clip-rule="evenodd" d="M50.7818 28.0744L55.4958 32.7885L31.9256 56.3587L27.2115 51.6447L37.8181 41.0381L18.962 22.1819L8.35536 32.7885L3.64131 28.0744L27.2115 4.5042L31.9256 9.21825L21.319 19.8249L40.1752 38.681L50.7818 28.0744ZM9.53387 8.03974L16.6049 0.968668L21.319 5.68271L4.81983 22.1819L0.105779 17.4678L7.17685 10.3968L4.81982 8.03973L7.17685 5.68271L9.53387 8.03974ZM51.9603 55.1802L49.6033 52.8232L42.5322 59.8942L37.8181 55.1802L54.3173 38.681L59.0313 43.3951L51.9603 50.4661L54.3173 52.8232L51.9603 55.1802Z" fill="#FDFDFD" fill-opacity="0.5"/>
</svg>
