<svg width="26" height="26" viewBox="0 0 26 26" fill="none" xmlns="http://www.w3.org/2000/svg">
<path d="M3.15615 9.14776L12.6687 14.0951C12.7641 14.1447 12.87 14.1706 12.9776 14.1706C13.0851 14.1706 13.1911 14.1447 13.2865 14.0951L22.799 9.14865V17.7424C22.7991 18.4836 22.5155 19.1967 22.0064 19.7355C21.4974 20.2742 20.8015 20.5978 20.0615 20.6397L19.8972 20.6442H6.05794C5.31674 20.6442 4.60363 20.3607 4.06487 19.8516C3.52612 19.3426 3.20258 18.6467 3.16062 17.9067L3.15615 17.7424V9.14776ZM6.05794 4.57275H19.8972C20.6384 4.57271 21.3515 4.85628 21.8903 5.36532C22.429 5.87435 22.7526 6.57025 22.7945 7.31025L22.799 7.47454V7.63883L12.9776 12.746L3.15615 7.63883V7.47454C3.1561 6.73335 3.43968 6.02023 3.94871 5.48148C4.45775 4.94272 5.15365 4.61918 5.89365 4.57722L6.05794 4.57275H19.8972H6.05794Z" fill="#AE282F"/>
</svg>
