<svg width="27" height="30" viewBox="0 0 27 30" fill="none" xmlns="http://www.w3.org/2000/svg">
<path d="M10.9379 3.16602C6.26361 3.16602 2.47761 6.95411 2.47761 11.6263C2.47465 13.4511 3.06443 15.2275 4.15821 16.6882L9.58491 26.0878C9.61641 26.1484 9.64791 26.2087 9.68661 26.2642L9.69861 26.2849L9.70191 26.2831C9.84318 26.48 10.0295 26.6402 10.2453 26.7503C10.4611 26.8605 10.7001 26.9174 10.9424 26.9164C11.4092 26.9164 11.816 26.704 12.0959 26.3767L12.11 26.3848L12.1637 26.2918C12.2429 26.185 12.3131 26.071 12.3638 25.9453L17.6804 16.7359C18.7973 15.2669 19.4009 13.4717 19.3982 11.6263C19.3982 6.95411 15.6122 3.16602 10.9379 3.16602ZM10.8542 15.9154C8.55111 15.9154 6.68571 14.0491 6.68571 11.7469C6.68571 9.44501 8.55111 7.57841 10.8542 7.57841C13.1573 7.57841 15.0227 9.44501 15.0227 11.7469C15.0227 14.0488 13.1573 15.9154 10.8542 15.9154Z" fill="#AE282F"/>
</svg>
