<svg width="31" height="31" viewBox="0 0 31 31" fill="none" xmlns="http://www.w3.org/2000/svg">
<path d="M24.2239 25.166C13.5601 25.181 5.46635 16.991 5.4776 6.41977C5.4776 5.72852 6.0376 5.16602 6.7276 5.16602H10.0276C10.6464 5.16602 11.1726 5.62102 11.2639 6.23352C11.4815 7.70233 11.9088 9.13232 12.5326 10.4798L12.6614 10.7573C12.7478 10.944 12.7664 11.1551 12.714 11.3541C12.6615 11.553 12.5412 11.7275 12.3739 11.8473C11.3514 12.5773 10.9614 14.046 11.7576 15.191C12.7564 16.6285 14.0151 17.8885 15.4526 18.8873C16.5989 19.6823 18.0676 19.2923 18.7964 18.271C18.916 18.1032 19.0906 17.9824 19.2899 17.9297C19.4891 17.877 19.7006 17.8956 19.8876 17.9823L20.1639 18.1098C21.5114 18.7348 22.9414 19.1623 24.4101 19.3798C25.0226 19.471 25.4776 19.9973 25.4776 20.6173V23.916C25.4776 24.0803 25.4452 24.2429 25.3823 24.3947C25.3194 24.5464 25.2273 24.6842 25.111 24.8003C24.9948 24.9164 24.8569 25.0085 24.7051 25.0712C24.5533 25.134 24.3906 25.1662 24.2264 25.166H24.2239Z" fill="#AE282F"/>
</svg>
